<svg width="285" height="280" viewBox="0 0 285 280" fill="none" xmlns="http://www.w3.org/2000/svg">
<g clip-path="url(#clip0_200_314)">
<path d="M142.508 280C210.788 280 262.775 240.204 279.361 181.53C283.064 168.545 285 154.615 285 140C285 125.17 283.002 111.059 279.207 97.8898C262.421 39.5506 210.561 0 142.508 0C59.0885 0 0 59.4042 0 140C0 220.611 59.0885 280 142.508 280ZM67.1987 139.908C67.1987 139.131 67.2141 138.34 67.2295 137.563C67.2448 136.848 67.2756 136.148 67.3063 135.446V135.43C67.337 134.73 67.3831 134.031 67.4292 133.328C67.4753 132.659 67.5214 131.987 67.5829 131.333C71.2246 89.7906 101.287 61.7182 142.508 61.7182C186.519 61.7182 217.801 93.719 217.801 140C217.801 186.281 186.519 218.297 142.508 218.297C100.54 218.297 70.1552 189.218 67.3954 146.408C67.3493 145.708 67.3186 145.009 67.2879 144.294C67.2571 143.698 67.2418 143.106 67.2264 142.514C67.211 141.676 67.1957 140.838 67.1957 140.003V139.908H67.1987Z" fill="url(#paint0_linear_200_314)"/>
<path d="M67.717 131.187C72.0594 74.4319 119.531 29.7345 177.492 29.7345C223.439 29.7345 262.816 57.8223 279.341 97.7412C283.136 110.91 285.134 125.022 285.134 139.851C285.134 154.466 283.198 168.396 279.495 181.381C263.075 221.512 223.593 249.784 177.492 249.784C118.831 249.784 70.8855 203.991 67.5326 146.259C70.2923 189.069 100.674 218.148 142.645 218.148C186.656 218.148 217.938 186.132 217.938 139.851C217.938 93.5704 186.656 61.5696 142.645 61.5696C101.421 61.5665 71.3587 89.642 67.717 131.187Z" fill="url(#paint1_linear_200_314)"/>
</g>
<defs>
<linearGradient id="paint0_linear_200_314" x1="110.5" y1="-24.5" x2="216" y2="393.5" gradientUnits="userSpaceOnUse">
<stop stop-color="#008EC5"/>
<stop offset="0.28125" stop-color="#4BC4F1"/>
<stop offset="1" stop-color="#4BC4F1"/>
</linearGradient>
<linearGradient id="paint1_linear_200_314" x1="124" y1="7.50001" x2="129.537" y2="340.499" gradientUnits="userSpaceOnUse">
<stop offset="0.385417" stop-color="#4BC4F1"/>
<stop offset="0.8125" stop-color="#037FAE"/>
</linearGradient>
<clipPath id="clip0_200_314">
<rect width="285" height="280" fill="white"/>
</clipPath>
</defs>
</svg>
