<svg width="46" height="44" viewBox="0 0 46 44" fill="none" xmlns="http://www.w3.org/2000/svg">
<path d="M22.5012 44C33.2823 44 41.4907 37.7463 44.1096 28.5262C44.6943 26.4857 45 24.2966 45 22C45 19.6696 44.6846 17.4521 44.0853 15.3827C41.4349 6.2151 33.2464 0 22.5012 0C9.32977 0 0 9.33494 0 22C0 34.6675 9.32977 44 22.5012 44ZM10.6103 21.9855C10.6103 21.8635 10.6128 21.7391 10.6152 21.6171C10.6176 21.5047 10.6225 21.3947 10.6273 21.2843V21.2819C10.6322 21.1719 10.6394 21.062 10.6467 20.9515C10.654 20.8464 10.6613 20.7408 10.671 20.6381C11.246 14.11 15.9926 9.69858 22.5012 9.69858C29.4504 9.69858 34.3897 14.7273 34.3897 22C34.3897 29.2727 29.4504 34.3038 22.5012 34.3038C15.8747 34.3038 11.0771 29.7343 10.6414 23.007C10.6341 22.897 10.6293 22.7871 10.6244 22.6747C10.6195 22.5811 10.6171 22.4881 10.6147 22.395C10.6123 22.2633 10.6098 22.1317 10.6098 22.0005V21.9855H10.6103Z" fill="url(#paint0_linear_200_282)"/>
<path d="M10.6922 20.6152C11.3778 11.6964 18.8734 4.67255 28.025 4.67255C35.2799 4.67255 41.4973 9.08634 44.1065 15.3593C44.7058 17.4288 45.0212 19.6463 45.0212 21.9766C45.0212 24.2732 44.7155 26.4623 44.1307 28.5028C41.5381 34.809 35.3042 39.2518 28.025 39.2518C18.7627 39.2518 11.1924 32.0557 10.663 22.9836C11.0988 29.7109 15.8959 34.2805 22.5229 34.2805C29.472 34.2805 34.4113 29.2493 34.4113 21.9766C34.4113 14.7039 29.472 9.6752 22.5229 9.6752C16.0138 9.67472 11.2672 14.0866 10.6922 20.6152Z" fill="url(#paint1_linear_200_282)"/>
<defs>
<linearGradient id="paint0_linear_200_282" x1="22.5" y1="0" x2="22.5" y2="44" gradientUnits="userSpaceOnUse">
<stop offset="0.302083" stop-color="#006A93"/>
<stop offset="0.765625" stop-color="#4BC4F1"/>
</linearGradient>
<linearGradient id="paint1_linear_200_282" x1="19.5789" y1="1.17855" x2="20.4448" y2="53.5072" gradientUnits="userSpaceOnUse">
<stop offset="0.21875" stop-color="#4BC4F1"/>
<stop offset="0.96875" stop-color="#006A93"/>
</linearGradient>
</defs>
</svg>
